<?xml version="1.0" standalone="no"?>
<!DOCTYPE svg PUBLIC "-//W3C//DTD SVG 20010904//EN"
 "http://www.w3.org/TR/2001/REC-SVG-20010904/DTD/svg10.dtd">
<svg version="1.0" xmlns="http://www.w3.org/2000/svg"
 width="2400.000000pt" height="2400.000000pt" viewBox="0 0 2400.000000 2400.000000"
 preserveAspectRatio="xMidYMid meet">
<metadata>
Created by potrace 1.11, written by Peter Selinger 2001-2013
</metadata>
<g transform="translate(0.000000,2400.000000) scale(0.100000,-0.100000)"
fill="#000000" stroke="none">
<path d="M8069 14996 c-2 -2 -42 -7 -89 -10 -88 -7 -173 -15 -225 -21 -16 -2
-55 -7 -85 -10 -30 -3 -66 -8 -80 -11 -14 -2 -43 -7 -65 -10 -60 -8 -153 -25
-225 -39 -14 -3 -38 -7 -55 -9 -16 -3 -82 -16 -145 -31 -63 -15 -122 -28 -130
-30 -8 -2 -35 -8 -60 -15 -25 -7 -52 -14 -60 -16 -8 -2 -42 -11 -75 -20 -33
-9 -64 -17 -70 -19 -5 -1 -17 -4 -25 -7 -30 -11 -315 -102 -320 -103 -5 0 -47
-17 -105 -40 -16 -7 -57 -23 -90 -35 -68 -25 -88 -33 -255 -107 -95 -41 -400
-198 -400 -205 0 -4 -5 -8 -11 -8 -14 0 -223 -122 -227 -132 -2 -4 -8 -8 -12
-8 -23 0 -409 -275 -483 -344 -15 -14 -30 -26 -33 -26 -2 0 -12 -8 -22 -17
-10 -10 -45 -40 -78 -67 -60 -50 -782 -773 -2876 -2878 -631 -634 -1287 -1294
-1458 -1465 l-311 -313 1684 0 1684 0 366 368 c202 202 653 656 1004 1009
1299 1307 1481 1489 1543 1543 35 30 68 60 74 65 26 23 95 75 100 75 5 0 21
12 60 45 16 13 55 38 171 108 11 7 22 15 25 18 3 3 19 12 35 21 17 8 77 39
135 69 96 49 186 91 265 124 49 21 169 67 180 70 6 1 17 5 25 8 57 21 84 29
240 72 103 28 110 30 185 45 28 6 61 13 75 16 14 3 39 7 55 10 17 2 46 7 65
11 48 8 76 12 135 18 28 3 68 7 90 10 48 5 2771 5 6575 1 l2745 -3 773 776
c424 427 772 776 772 776 36 33 730 736 730 740 0 6 -11715 7 -11721 1z"/>
<path d="M19708 14347 c-357 -359 -648 -652 -648 -652 0 0 -2390 -2399 -3481
-3495 l-1190 -1195 1822 -3 1821 -2 522 524 c858 863 3729 3750 4894 4920 298
300 542 548 542 551 0 3 -818 5 -1817 4 l-1818 -1 -647 -651z"/>
<path d="M8857 12413 c-1 -1 -61 -4 -132 -7 -72 -4 -148 -8 -170 -10 -22 -2
-75 -7 -119 -10 -43 -3 -81 -8 -85 -10 -3 -2 -31 -7 -61 -10 -58 -6 -83 -10
-165 -26 -27 -5 -66 -12 -85 -15 -19 -3 -43 -8 -52 -11 -17 -5 -47 -12 -88
-20 -14 -3 -63 -16 -110 -31 -47 -14 -89 -26 -95 -27 -34 -7 -131 -42 -136
-49 -3 -5 -8 -7 -10 -6 -4 4 -85 -24 -136 -47 -17 -8 -34 -14 -37 -14 -12 0
-279 -130 -306 -150 -15 -11 -30 -17 -34 -13 -3 3 -6 1 -6 -5 0 -7 -5 -12 -10
-12 -23 0 -310 -191 -406 -269 -18 -14 -41 -33 -52 -41 -84 -63 -229 -200
-466 -438 -339 -342 -1424 -1435 -1788 -1801 -208 -209 -378 -383 -378 -386 0
-3 721 -5 1603 -5 l1602 0 450 453 c248 249 473 471 500 492 65 52 112 85 121
85 4 0 22 11 40 25 18 14 40 25 48 25 9 0 16 4 16 9 0 5 8 11 18 14 9 3 77 30
150 61 72 30 132 53 132 51 0 -2 24 4 53 14 28 9 79 23 112 30 33 7 67 16 75
18 8 3 22 7 30 8 8 1 42 7 75 13 33 6 78 14 100 17 22 2 67 9 100 13 33 4 821
7 1750 6 1588 -3 3884 -5 4058 -4 l79 0 1031 1035 c568 570 1033 1039 1035
1043 2 6 -8245 11 -8251 5z"/>
</g>
</svg>
