<?xml version="1.0" encoding="utf-8"?>
<svg version="1.2" baseProfile="tiny" id="Layer_1" xmlns="http://www.w3.org/2000/svg" xmlns:xlink="http://www.w3.org/1999/xlink"
	 x="0px" y="0px" viewBox="0 0 250 261" overflow="visible" xml:space="preserve">
<path d="M247,223.6c-2.7-9.9-7.3-18.8-13.7-26.8c-2.4-3-5.1-5.9-7.9-8.5c-9.1-8.6-19.9-15.3-30.9-20.9c-12-6.1-24.6-11.1-37.1-15.8
	l-6.3-2.8c8-9.3,14.1-21.1,18-29.7l0.1-0.2c0.2-0.4,0.6-0.6,0.9-0.8c2-1.1,4-2.7,5.7-4.2c3.2-2.7,6-5.9,8.2-9.5
	c2.6-4.4,4.1-9.3,3.9-14.5c-0.3-6.8-3.4-12.9-7.6-18.1l-0.1-0.1c-0.3-0.5-0.4-1.1-0.3-1.7c2.4-12,2.3-24.6-2.1-36.1
	c-3.5-9.2-9.6-17-17.6-22.7c-6.6-4.7-14.3-7.9-22.3-9.5C133.7,0.5,129.3,0,125,0c-4.3,0-8.7,0.5-12.9,1.4c-8,1.7-15.6,4.8-22.3,9.5
	c-8,5.7-14.1,13.5-17.6,22.7c-4.4,11.6-4.5,24.1-2.1,36.1c0.1,0.6,0,1.2-0.3,1.7l-0.1,0.1c-4.2,5.2-7.3,11.4-7.6,18.1
	C61.8,95,63.3,100,66,104.4c2.1,3.6,5,6.8,8.2,9.5c1.7,1.5,3.8,3.1,5.7,4.2c0.4,0.2,0.7,0.5,0.9,0.8l0.1,0.2
	c3.8,8.4,9.8,20,17.6,29.3c0,1.7-5.9,3.2-5.9,3.2c-12.6,4.7-25.2,9.7-37.1,15.8c-11.1,5.6-21.9,12.4-30.9,20.9
	c-2.8,2.7-5.5,5.5-7.9,8.5c-6.4,8-11,16.9-13.7,26.8c-3.2,11.6-3.6,23.6-2.4,35.5l0.2,1.9h248.4l0.2-1.9
	C250.6,247.2,250.2,235.1,247,223.6z"/>
</svg>
